<svg width="14" height="11" viewBox="0 0 14 11" fill="none" xmlns="http://www.w3.org/2000/svg">
<path d="M2.38462 2.84615H3.76923L4.85385 1.4C5.0427 1.14819 5.33909 1 5.65385 1H8.34615C8.66091 1 8.9573 1.14819 9.14615 1.4L10.2308 2.84615H12C12.5523 2.84615 13 3.29387 13 3.84615V8.76923C13 9.32152 12.5523 9.76923 12 9.76923H2C1.44772 9.76923 1 9.32152 1 8.76923V3.84615C1 3.29387 1.44772 2.84615 2 2.84615H2.38462ZM2.38462 2.84615V1.92308" stroke="white"/>
<circle cx="7.00008" cy="6.07698" r="2.05769" stroke="white" stroke-width="0.5"/>
<circle cx="7.00009" cy="6.077" r="1.38462" fill="white"/>
</svg>
