<svg width="124" height="47" viewBox="0 0 124 47" fill="none" xmlns="http://www.w3.org/2000/svg">
<path d="M8.03125 46H0.84375C0.635417 46 0.53125 45.8958 0.53125 45.6875L0.65625 1.71875C0.65625 1.55208 0.739583 1.46875 0.90625 1.46875H21.4062C21.6146 1.46875 21.7188 1.55208 21.7188 1.71875V8.9375C21.7188 9.10417 21.6354 9.1875 21.4688 9.1875H8.34375V19.125H21.4688C21.6354 19.125 21.7188 19.2292 21.7188 19.4375L21.7812 26.6875C21.7812 26.8542 21.6771 26.9375 21.4688 26.9375H8.34375V45.6875C8.34375 45.8958 8.23958 46 8.03125 46ZM35.0312 46H27.7812C27.5729 46 27.4688 45.8958 27.4688 45.6875L27.5312 1.71875C27.5312 1.55208 27.6146 1.46875 27.7812 1.46875H34.9688C35.1354 1.46875 35.2188 1.55208 35.2188 1.71875L35.2812 45.6875C35.2812 45.8958 35.1979 46 35.0312 46ZM47.875 46H41.4688C41.1354 46 40.9688 45.8542 40.9688 45.5625L40.9062 1.96875C40.9062 1.63542 41.0729 1.46875 41.4062 1.46875H47.1875L58 26.6875L57.6875 1.96875C57.6875 1.63542 57.875 1.46875 58.25 1.46875H64.5938C64.8438 1.46875 64.9688 1.63542 64.9688 1.96875L65.0312 45.625C65.0312 45.875 64.9271 46 64.7188 46H59.0938L48 22.4375L48.4688 45.5C48.4688 45.8333 48.2708 46 47.875 46ZM82.3125 46.625C80 46.625 77.9167 46.0521 76.0625 44.9062C74.1875 43.7604 72.6771 42.2188 71.5312 40.2812C70.4062 38.3438 69.8438 36.1771 69.8438 33.7812V13.5C69.8438 11.1667 70.4167 9.04167 71.5625 7.125C72.6875 5.1875 74.1979 3.64583 76.0938 2.5C77.9896 1.33333 80.0625 0.75 82.3125 0.75C84.6667 0.75 86.7917 1.3125 88.6875 2.4375C90.5833 3.58333 92.0833 5.11458 93.1875 7.03125C94.3125 8.94792 94.875 11.1042 94.875 13.5V16.4375C94.875 16.6042 94.7708 16.6875 94.5625 16.6875H87.375C87.2083 16.6875 87.125 16.6042 87.125 16.4375V14C87.125 12.375 86.6667 11.0312 85.75 9.96875C84.8333 8.90625 83.6875 8.375 82.3125 8.375C81.0833 8.375 79.9896 8.88542 79.0312 9.90625C78.0729 10.9271 77.5938 12.125 77.5938 13.5V33.7812C77.5938 35.1771 78.0625 36.3854 79 37.4062C79.9375 38.4062 81.0417 38.9062 82.3125 38.9062C83.6875 38.9062 84.8333 38.4167 85.75 37.4375C86.6667 36.4375 87.125 35.2188 87.125 33.7812V30.625H82.6562C82.4271 30.625 82.3125 30.5208 82.3125 30.3125V23.1562C82.3125 22.9479 82.4271 22.8438 82.6562 22.8438H94.625C94.7917 22.8438 94.875 22.9479 94.875 23.1562V33.7812C94.875 36.1771 94.3125 38.3438 93.1875 40.2812C92.0417 42.2188 90.5312 43.7604 88.6562 44.9062C86.7812 46.0521 84.6667 46.625 82.3125 46.625ZM111.25 46.625C108.979 46.625 106.885 46.0417 104.969 44.875C103.073 43.7083 101.542 42.1562 100.375 40.2188C99.2292 38.2604 98.6562 36.1146 98.6562 33.7812L98.7188 13.5C98.7188 11.125 99.2917 8.98958 100.438 7.09375C101.562 5.17708 103.083 3.64583 105 2.5C106.917 1.33333 109 0.75 111.25 0.75C113.583 0.75 115.677 1.32292 117.531 2.46875C119.406 3.61458 120.906 5.15625 122.031 7.09375C123.177 9.01042 123.75 11.1458 123.75 13.5L123.812 33.7812C123.812 36.1146 123.25 38.25 122.125 40.1875C120.979 42.1458 119.458 43.7083 117.562 44.875C115.667 46.0417 113.562 46.625 111.25 46.625ZM111.25 38.9062C112.542 38.9062 113.667 38.3854 114.625 37.3438C115.583 36.2812 116.062 35.0938 116.062 33.7812L116 13.5C116 12.0833 115.552 10.8854 114.656 9.90625C113.76 8.92708 112.625 8.4375 111.25 8.4375C109.938 8.4375 108.812 8.91667 107.875 9.875C106.938 10.8333 106.469 12.0417 106.469 13.5V33.7812C106.469 35.1771 106.938 36.3854 107.875 37.4062C108.812 38.4062 109.938 38.9062 111.25 38.9062Z" fill="white"/>
</svg>
